<svg xmlns="http://www.w3.org/2000/svg" viewBox="0 0 512 512" width="512" height="512">
  <defs>
    <radialGradient id="badgeBg" cx="50%" cy="50%" r="50%">
      <stop offset="0%" stop-color="#fffbeb"/>
      <stop offset="70%" stop-color="#fef3c7"/>
      <stop offset="100%" stop-color="#fde68a"/>
    </radialGradient>
    <linearGradient id="goldRing" x1="0%" y1="0%" x2="100%" y2="100%">
      <stop offset="0%" stop-color="#fbbf24"/>
      <stop offset="35%" stop-color="#f59e0b"/>
      <stop offset="70%" stop-color="#d97706"/>
      <stop offset="100%" stop-color="#b45309"/>
    </linearGradient>
    <linearGradient id="crimsonGradient" x1="0%" y1="0%" x2="100%" y2="100%">
      <stop offset="0%" stop-color="#dc2626"/>
      <stop offset="50%" stop-color="#b91c1c"/>
      <stop offset="100%" stop-color="#7f1d1d"/>
    </linearGradient>
    <linearGradient id="diyaClay" x1="0%" y1="0%" x2="0%" y2="100%">
      <stop offset="0%" stop-color="#991b1b"/>
      <stop offset="50%" stop-color="#7f1d1d"/>
      <stop offset="100%" stop-color="#450a0a"/>
    </linearGradient>
    <linearGradient id="flameGlow" x1="50%" y1="100%" x2="50%" y2="0%">
      <stop offset="0%" stop-color="#dc2626"/>
      <stop offset="30%" stop-color="#ea580c"/>
      <stop offset="65%" stop-color="#f59e0b"/>
      <stop offset="90%" stop-color="#fef08a"/>
      <stop offset="100%" stop-color="#ffffff"/>
    </linearGradient>
    <radialGradient id="sunGlow" cx="50%" cy="50%" r="50%">
      <stop offset="0%" stop-color="#fde047" stop-opacity="0.9"/>
      <stop offset="50%" stop-color="#f59e0b" stop-opacity="0.6"/>
      <stop offset="100%" stop-color="#d97706" stop-opacity="0"/>
    </radialGradient>
    <linearGradient id="leafGrad" x1="0%" y1="0%" x2="100%" y2="100%">
      <stop offset="0%" stop-color="#16a34a"/>
      <stop offset="100%" stop-color="#15803d"/>
    </linearGradient>
    <linearGradient id="goldAccent" x1="0%" y1="0%" x2="100%" y2="100%">
      <stop offset="0%" stop-color="#fef08a"/>
      <stop offset="50%" stop-color="#f59e0b"/>
      <stop offset="100%" stop-color="#b45309"/>
    </linearGradient>
  </defs>

  <circle cx="256" cy="256" r="248" fill="url(#goldRing)" />
  <circle cx="256" cy="256" r="236" fill="#ffffff" />
  <circle cx="256" cy="256" r="230" fill="url(#badgeBg)" />
  <circle cx="256" cy="256" r="226" fill="none" stroke="#f59e0b" stroke-width="2" opacity="0.6"/>

  <g fill="#f59e0b" opacity="0.9">
    <path d="M256 36 L262 76 L250 76 Z"/>
    <path d="M208 48 L220 86 L208 82 Z"/>
    <path d="M304 48 L292 86 L304 82 Z"/>
    <path d="M164 74 L184 106 L174 100 Z"/>
    <path d="M348 74 L328 106 L338 100 Z"/>
    <path d="M128 114 L154 138 L146 130 Z"/>
    <path d="M384 114 L358 138 L366 130 Z"/>
  </g>

  <path d="M 120 200 A 150 150 0 0 1 392 200" fill="none" stroke="#f59e0b" stroke-width="5" stroke-linecap="round"/>

  <g fill="url(#leafGrad)">
    <path d="M110 225 Q135 240 130 265 Q115 285 90 280 Q75 255 110 225 Z"/>
    <path d="M80 300 Q105 310 102 325 Q88 335 74 330 Q65 312 80 300 Z"/>
    <circle cx="85" cy="275" r="8" fill="#f59e0b"/>
    <circle cx="70" cy="295" r="7" fill="#ea580c"/>
  </g>

  <g fill="url(#leafGrad)">
    <path d="M402 225 Q377 240 382 265 Q397 285 422 280 Q437 255 402 225 Z"/>
    <path d="M432 300 Q407 310 410 325 Q424 335 438 330 Q447 312 432 300 Z"/>
    <circle cx="427" cy="275" r="8" fill="#f59e0b"/>
    <circle cx="442" cy="295" r="7" fill="#ea580c"/>
  </g>

  <!-- Central S in Crimson Red -->
  <path d="M 270 120 
           C 220 120 170 145 170 195 
           C 170 240 215 260 250 275
           C 285 290 305 305 305 325
           C 305 348 280 365 245 365
           C 200 365 175 340 168 318
           C 155 318 140 330 140 350
           C 140 385 185 405 245 405
           C 310 405 360 370 360 318
           C 360 270 315 245 275 230
           C 240 215 220 200 220 180
           C 220 162 240 148 270 148
           C 300 148 325 160 340 178
           C 348 165 358 152 358 138
           C 340 125 308 120 270 120 Z" 
        fill="url(#crimsonGradient)"/>

  <path d="M 175 240 C 135 240 120 280 145 315 C 160 305 170 270 200 260 C 185 250 180 240 175 240 Z" fill="url(#crimsonGradient)"/>

  <!-- Clay Diya & Jyoti -->
  <g>
    <path d="M 265 265 Q 330 330 395 265 Q 365 310 330 315 Q 295 310 265 265 Z" fill="url(#diyaClay)"/>
    <ellipse cx="330" cy="265" rx="65" ry="14" fill="#7f1d1d"/>
    <ellipse cx="330" cy="263" rx="55" ry="10" fill="#991b1b"/>
    <path d="M 330 280 Q 320 300 330 310 Q 340 300 330 280 Z" fill="url(#goldAccent)"/>
    <circle cx="330" cy="225" r="45" fill="url(#sunGlow)"/>
    <path d="M 330 160 Q 355 210 348 245 Q 330 262 312 245 Q 305 210 330 160 Z" fill="url(#flameGlow)"/>
    <path d="M 330 190 Q 342 225 338 245 Q 330 252 322 245 Q 318 225 330 190 Z" fill="#ffffff" opacity="0.9"/>
  </g>

  <text x="256" y="388" font-family="'Georgia', serif" font-size="44" font-weight="900" fill="url(#crimsonGradient)" text-anchor="middle" letter-spacing="1">
    Shubhakamna
  </text>

  <g fill="#f59e0b">
    <path d="M 125 412 Q 185 410 235 422 Q 185 424 125 412 Z"/>
    <path d="M 256 422 C 256 418 250 412 244 412 C 238 412 235 416 235 421 C 235 428 248 438 256 444 C 264 438 277 428 277 421 C 277 416 274 412 268 412 C 262 412 256 418 256 422 Z" fill="#dc2626"/>
    <path d="M 387 412 Q 327 410 277 422 Q 327 424 387 412 Z"/>
    <circle cx="225" cy="432" r="4.5"/>
    <circle cx="242" cy="442" r="5.5"/>
    <circle cx="270" cy="442" r="5.5"/>
    <circle cx="287" cy="432" r="4.5"/>
  </g>
</svg>
